<svg version="1.1" id="Capa_1" xmlns="http://www.w3.org/2000/svg" x="0" y="0" viewBox="0 0 254.533 254.533" height="20" width="20" xml:space="preserve"><path d="M127.267 0C57.092 0 0 57.091 0 127.266s57.092 127.267 127.267 127.267 127.267-57.092 127.267-127.267S197.441 0 127.267 0zm.002 226.336c-54.627 0-99.069-44.442-99.069-99.07s44.442-99.071 99.069-99.071c54.628 0 99.071 44.443 99.071 99.071s-44.444 99.07-99.071 99.07z"/><path d="M187.144 81.838a7.968 7.968 0 0 0-7.968 7.968v30.145h-23.982V89.806a7.968 7.968 0 0 0-15.936 0v30.145h-23.984V89.806a7.968 7.968 0 0 0-15.936 0v30.145H75.354V89.806a7.968 7.968 0 0 0-15.936 0v34.832c0 7.729 4.791 11.248 9.243 11.248h30.677v28.842a7.968 7.968 0 0 0 15.936 0v-28.842h23.984v28.842a7.968 7.968 0 0 0 15.936 0v-28.842h23.982v28.842a7.968 7.968 0 0 0 15.936 0V89.806c0-4.4-3.567-7.968-7.968-7.968z"/></svg>